# xmcd
#
# Track frame offsets:
#	183
#	5933
#	49370
#	70003
#	85925
#	102858
#	122928
#	172970
#	193970
#
# Disc length: 2880 seconds
#
# Revision: 9
# Processed by: cddbd v1.5.2PL0 Copyright (c) Steve Scherf et al.
# Submitted via: audiograbber 1.83.01
#
DISCID=7e0b3e09
DTITLE=Jean-Michel Jarre - Jean-Michel Jarre In Concert - Houston - Lyon
DYEAR=1987
DGENRE=Electronic
TTITLE0=Oxygene V
TTITLE1=Ethnicolor
TTITLE2=Chants Magnetiques I - Magnetic Fields
TTITLE3=Souvenir De Chine - Souvenir Of China
TTITLE4=Equinoxe
TTITLE5=Rendez-vous III (Harpe Laser) - Laser Harp
TTITLE6=Rendez-vous II
TTITLE7=Ron's Piece
TTITLE8=Rendez-vous IV
EXTD=\n\n YEAR: 1994
EXTT0=
EXTT1=
EXTT2=
EXTT3=
EXTT4=
EXTT5=
EXTT6=
EXTT7=
EXTT8=
PLAYORDER=
